# xmcd
#
# Track frame offsets: 
#        180
#        16362
#        33761
#        48333
#        66139
#        77951
#        95376
#        107842
#        124793
#        135131
#
# Disc length: 2072 seconds
#
# Revision: 0
# Processed by: cddbd v1.5PL3 Copyright (c) Steve Scherf et al.
# Submitted via: ExactAudioCopy v0.95a5
#
DISCID=7608160a
DTITLE=Tennessee - From The Heart
DYEAR=1900
DGENRE=Bluegrass
TTITLE0=Back On My Mind
TTITLE1=Bluegrass Melodies
TTITLE2=Talking To The Moon
TTITLE3=Georgia On My Mind
TTITLE4=Cajun Baby
TTITLE5=Just When I Need You Most
TTITLE6=Ready For Times To Get Better
TTITLE7=In Times Like These
TTITLE8=Silver Threads
TTITLE9=He's Alright
EXTD=
EXTT0=
EXTT1=
EXTT2=
EXTT3=
EXTT4=
EXTT5=
EXTT6=
EXTT7=
EXTT8=
EXTT9=
PLAYORDER=
